<?xml version="1.0" standalone="no"?>
<!DOCTYPE svg PUBLIC "-//W3C//DTD SVG 20010904//EN"
 "http://www.w3.org/TR/2001/REC-SVG-20010904/DTD/svg10.dtd">
<svg version="1.0" xmlns="http://www.w3.org/2000/svg"
 width="500.000000pt" height="500.000000pt" viewBox="0 0 500.000000 500.000000"
 preserveAspectRatio="xMidYMid meet">
<metadata>
Created by potrace 1.14, written by Peter Selinger 2001-2017
</metadata>
<g transform="translate(0.000000,500.000000) scale(0.100000,-0.100000)"
fill="#000000" stroke="none">
<path d="M3200 3319 c-65 -11 -162 -55 -208 -94 -138 -116 -175 -363 -76 -506
l27 -39 241 1 241 0 -120 59 c-144 71 -211 120 -242 179 -46 88 -21 203 57
260 72 52 205 64 296 26 83 -35 164 -130 199 -236 16 -46 18 -49 52 -49 l35 0
-6 148 c-10 204 -14 232 -37 232 -11 0 -29 -17 -44 -40 -14 -22 -27 -40 -30
-40 -2 0 -25 14 -50 31 -90 61 -222 88 -335 68z"/>
<path d="M1190 3271 c0 -41 0 -41 38 -42 61 0 104 -21 127 -59 18 -32 20 -55
23 -262 l4 -228 99 0 99 0 0 264 c0 231 2 265 16 270 26 10 216 7 279 -5 120
-22 173 -69 201 -180 31 -122 3 -253 -70 -316 l-37 -33 134 0 c126 0 135 1
154 23 58 63 92 194 74 290 -27 147 -125 239 -308 289 -71 19 -110 21 -455 26
l-378 4 0 -41z"/>
<path d="M967 2573 c-11 -10 -8 -103 3 -103 6 0 10 10 10 22 0 21 0 21 26 -3
l27 -24 -13 25 c-9 17 -10 25 -1 28 17 6 13 49 -5 56 -20 8 -39 8 -47 -1z m48
-28 c0 -11 -8 -21 -17 -23 -14 -3 -18 3 -18 23 0 20 4 26 18 23 9 -2 17 -12
17 -23z"/>
<path d="M1140 2525 l0 -55 38 2 c36 1 36 1 5 5 -43 6 -47 40 -5 46 l27 4 -27
2 c-21 1 -28 6 -28 20 0 15 8 21 33 24 31 4 31 4 -5 5 l-38 2 0 -55z"/>
<path d="M1321 2523 c1 -32 4 -46 6 -31 3 20 11 28 31 31 l27 4 -27 2 c-21 1
-28 6 -28 20 0 15 8 21 33 24 31 4 31 4 -5 5 l-38 2 1 -57z"/>
<path d="M1497 2573 c-11 -10 -8 -103 3 -103 6 0 10 10 10 22 0 21 0 21 26 -3
l27 -24 -13 25 c-9 17 -10 25 -1 28 17 6 13 49 -5 56 -20 8 -39 8 -47 -1z m48
-28 c0 -11 -8 -21 -17 -23 -14 -3 -18 3 -18 23 0 20 4 26 18 23 9 -2 17 -12
17 -23z"/>
<path d="M1670 2525 l0 -55 38 2 c36 1 36 1 5 5 -43 6 -47 40 -5 46 l27 4 -27
2 c-21 1 -28 6 -28 20 0 15 8 21 33 24 31 4 31 4 -5 5 l-38 2 0 -55z"/>
<path d="M1863 2573 c-24 -9 -14 -41 17 -52 17 -5 30 -17 30 -25 0 -19 -31
-21 -49 -3 -11 10 -13 9 -9 -3 6 -21 52 -24 68 -6 16 20 1 41 -36 50 -33 9
-25 32 10 29 14 -1 24 2 21 8 -6 10 -31 11 -52 2z"/>
<path d="M2220 2525 l0 -55 38 2 c36 1 36 1 5 5 -43 6 -47 40 -5 46 l27 4 -27
2 c-21 1 -28 6 -28 20 0 15 8 21 33 24 31 4 31 4 -5 5 l-38 2 0 -55z"/>
<path d="M2400 2525 c0 -51 2 -55 23 -55 35 0 60 23 60 55 0 32 -25 55 -60 55
-21 0 -23 -4 -23 -55z m51 35 c36 -20 18 -80 -23 -80 -14 0 -18 8 -18 38 0 52
7 59 41 42z"/>
<path d="M2743 2573 c-24 -9 -14 -41 17 -52 17 -5 30 -17 30 -25 0 -19 -31
-21 -49 -3 -11 10 -13 9 -9 -3 6 -21 52 -24 68 -6 16 20 1 41 -36 50 -33 9
-25 32 10 29 14 -1 24 2 21 8 -6 10 -31 11 -52 2z"/>
<path d="M2950 2558 c-12 -22 -12 -22 6 -6 10 10 15 20 12 24 -4 3 -12 -5 -18
-18z"/>
<path d="M3083 2525 c0 -33 2 -45 4 -27 2 18 2 45 0 60 -2 15 -4 0 -4 -33z"/>
<path d="M3211 2525 c2 -53 3 -55 8 -21 l6 39 28 -39 27 -39 -1 60 c-2 54 -2
56 -8 20 l-6 -40 -27 40 -28 40 1 -60z"/>
<path d="M3410 2560 c-24 -24 -25 -38 -4 -68 18 -26 56 -29 75 -5 13 15 12 15
-9 4 -49 -26 -87 19 -52 62 16 19 22 20 39 10 28 -17 36 -16 21 2 -17 21 -46
19 -70 -5z"/>
<path d="M3621 2537 c-22 -50 -28 -86 -10 -54 12 21 59 23 59 2 0 -8 4 -15 10
-15 5 0 1 19 -9 43 -10 23 -20 49 -23 57 -4 10 -13 -2 -27 -33z m32 -7 c4 -15
0 -20 -14 -20 -17 0 -18 3 -9 20 6 11 12 20 14 20 2 0 6 -9 9 -20z"/>
<path d="M3797 2573 c-11 -10 -8 -103 3 -103 6 0 10 10 10 22 0 21 0 21 26 -3
l27 -24 -13 25 c-9 17 -10 25 -1 28 17 6 13 49 -5 56 -20 8 -39 8 -47 -1z m48
-28 c0 -11 -8 -21 -17 -23 -14 -3 -18 3 -18 23 0 20 4 26 18 23 9 -2 17 -12
17 -23z"/>
<path d="M3970 2525 l0 -55 38 2 c36 1 36 1 5 5 -43 6 -47 40 -5 46 l27 4 -27
2 c-21 1 -28 6 -28 20 0 15 8 21 33 24 31 4 31 4 -5 5 l-38 2 0 -55z"/>
<path d="M2030 2520 c0 -27 5 -50 10 -50 6 0 10 11 10 25 0 18 5 25 20 25 15
0 20 -7 20 -25 0 -14 5 -25 10 -25 6 0 10 23 10 50 0 28 -4 50 -10 50 -5 0
-10 -9 -10 -20 0 -13 -7 -20 -20 -20 -13 0 -20 7 -20 20 0 11 -4 20 -10 20 -5
0 -10 -22 -10 -50z"/>
<path d="M2910 2520 c0 -27 4 -50 9 -50 12 0 21 52 14 79 -10 38 -23 22 -23
-29z"/>
<path d="M2940 2502 c0 -5 7 -15 15 -22 8 -7 15 -8 15 -2 0 5 -7 15 -15 22 -8
7 -15 8 -15 2z"/>
<path d="M1379 2187 c-6 -231 -18 -253 -161 -272 -47 -6 -48 -7 -48 -41 l0
-34 335 0 335 0 0 33 0 33 -89 11 c-156 20 -171 44 -171 283 l0 160 -99 0 -99
0 -3 -173z"/>
<path d="M1872 2351 c2 -5 91 -122 198 -260 l195 -250 188 -1 187 0 0 35 c0
30 -4 35 -27 41 -67 14 -131 39 -168 64 -22 15 -105 107 -185 203 l-145 176
-123 0 c-70 1 -122 -3 -120 -8z"/>
<path d="M3537 2328 c48 -52 65 -94 65 -163 -1 -74 -18 -119 -62 -163 -64 -61
-112 -77 -235 -77 -80 0 -124 5 -162 18 -122 43 -223 153 -258 281 -18 65 -19
66 -51 66 -26 0 -34 -4 -34 -17 0 -40 22 -370 26 -390 8 -39 40 -28 70 22 14
25 27 45 29 45 1 0 29 -18 61 -39 98 -65 169 -85 309 -85 134 0 200 14 297 66
73 39 152 122 185 195 28 60 43 192 29 247 l-6 26 -147 0 -147 0 31 -32z"/>
<path d="M560 1630 c-8 -14 -8 -26 0 -40 11 -20 44 -27 54 -11 3 4 -5 6 -18 4
-25 -5 -40 16 -29 43 4 12 14 14 37 10 22 -4 27 -3 16 4 -24 16 -48 12 -60
-10z"/>
<path d="M712 1613 c-2 -39 0 -43 21 -42 16 1 17 3 5 6 -11 3 -18 17 -21 41
l-4 37 -1 -42z"/>
<path d="M830 1610 c0 -37 2 -40 28 -39 23 2 24 2 5 6 -18 3 -23 11 -23 33 0
22 5 30 23 33 19 4 18 4 -5 6 -26 1 -28 -2 -28 -39z"/>
<path d="M975 1615 c-9 -20 -14 -40 -11 -43 3 -3 6 0 6 6 0 16 33 15 49 0 10
-11 10 -8 0 15 -9 19 -15 24 -20 15 -4 -7 -11 -9 -15 -5 -4 3 -1 13 6 22 7 9
10 18 7 22 -4 3 -14 -11 -22 -32z"/>
<path d="M1102 1610 c0 -38 1 -41 7 -15 l6 29 22 -29 22 -30 -1 45 c-1 32 -2
37 -5 16 l-5 -29 -23 29 -24 29 1 -45z"/>
<path d="M1447 1643 c-13 -12 -7 -24 18 -33 33 -13 33 -34 -1 -27 -16 3 -22 1
-16 -5 14 -14 46 -6 50 13 2 9 -9 21 -25 29 l-28 13 25 8 c22 6 22 7 4 8 -11
1 -24 -2 -27 -6z"/>
<path d="M1584 1610 c1 -30 4 -35 26 -35 22 0 25 5 26 35 1 35 1 35 -3 3 -3
-24 -9 -33 -23 -33 -14 0 -20 9 -23 33 -4 32 -4 32 -3 -3z"/>
<path d="M1727 1643 c-13 -12 -7 -24 18 -33 33 -13 33 -34 -1 -27 -16 3 -22 1
-16 -5 14 -14 46 -6 50 13 2 9 -9 21 -25 29 l-28 13 25 8 c22 6 22 7 4 8 -11
1 -24 -2 -27 -6z"/>
<path d="M1867 1642 c6 -4 13 -23 15 -42 l3 -35 6 43 c4 37 2 42 -16 42 -12 0
-16 -3 -8 -8z"/>
<path d="M1996 1614 c-9 -20 -14 -39 -11 -42 3 -3 5 0 5 6 0 16 33 15 49 0 9
-9 8 0 -3 26 -9 22 -18 41 -20 43 -1 1 -10 -14 -20 -33z m28 1 c3 -9 0 -15 -9
-15 -9 0 -12 6 -9 15 4 8 7 15 9 15 2 0 5 -7 9 -15z"/>
<path d="M2133 1610 c0 -25 2 -35 4 -22 2 12 2 32 0 45 -2 12 -4 2 -4 -23z"/>
<path d="M2222 1610 c1 -32 2 -37 5 -16 l5 29 23 -29 24 -29 -1 45 c0 38 -1
41 -7 15 l-6 -29 -22 29 -22 30 1 -45z"/>
<path d="M2375 1615 c-9 -20 -14 -40 -11 -43 3 -3 6 0 6 6 0 16 33 15 49 0 10
-11 10 -8 0 15 -9 19 -15 24 -20 15 -4 -7 -11 -9 -15 -5 -4 3 -1 13 6 22 7 9
10 18 7 22 -4 3 -14 -11 -22 -32z"/>
<path d="M2500 1611 c0 -37 3 -41 24 -41 24 0 41 22 28 35 -4 3 -7 14 -7 23 0
10 -9 18 -22 20 -21 3 -23 -1 -23 -37z m40 19 c0 -5 -7 -10 -15 -10 -8 0 -15
5 -15 10 0 6 7 10 15 10 8 0 15 -4 15 -10z m3 -35 c1 -5 -6 -11 -15 -13 -11
-2 -18 3 -18 13 0 17 30 18 33 0z"/>
<path d="M2642 1613 c-2 -39 0 -43 21 -42 16 1 17 3 5 6 -11 3 -18 17 -21 41
l-4 37 -1 -42z"/>
<path d="M2750 1610 c0 -37 2 -40 28 -39 20 1 22 3 6 6 -15 3 -21 12 -21 33 0
21 6 30 21 33 16 3 14 5 -6 6 -26 1 -28 -2 -28 -39z"/>
<path d="M3091 1608 c1 -24 3 -35 6 -25 4 17 6 17 21 3 16 -13 17 -11 17 22 0
31 -4 38 -22 40 -21 3 -23 0 -22 -40z m39 17 c0 -8 -7 -15 -15 -15 -8 0 -15 7
-15 15 0 8 7 15 15 15 8 0 15 -7 15 -15z"/>
<path d="M3220 1610 c0 -37 2 -40 28 -39 20 1 22 3 6 6 -15 3 -21 12 -21 33 0
21 6 30 21 33 16 3 14 5 -6 6 -26 1 -28 -2 -28 -39z"/>
<path d="M3362 1608 l1 -43 4 37 c3 28 9 38 26 41 18 4 17 5 -5 6 -27 1 -28
-1 -26 -41z"/>
<path d="M3491 1608 c0 -33 2 -38 9 -23 7 18 8 19 15 3 4 -10 12 -18 17 -18 6
0 5 6 -2 15 -10 12 -10 18 0 30 15 18 5 35 -21 35 -16 0 -19 -7 -18 -42z m37
20 c-6 -18 -28 -21 -28 -4 0 9 7 16 16 16 9 0 14 -5 12 -12z"/>
<path d="M3620 1610 c0 -37 2 -40 28 -39 23 2 24 2 5 6 -18 3 -23 11 -23 33 0
22 5 30 23 33 19 4 18 4 -5 6 -26 1 -28 -2 -28 -39z"/>
<path d="M3757 1643 c-13 -12 -7 -24 18 -33 33 -13 33 -34 -1 -27 -16 3 -22 1
-16 -5 14 -14 46 -6 50 13 2 9 -9 21 -25 29 l-28 13 25 8 c22 6 22 7 4 8 -11
1 -24 -2 -27 -6z"/>
<path d="M3891 1610 c0 -37 2 -41 9 -22 6 13 6 31 0 45 -7 18 -9 14 -9 -23z"/>
<path d="M3938 1633 c-2 -10 -1 -29 3 -43 6 -20 7 -17 8 18 1 44 -4 54 -11 25z"/>
<path d="M4033 1610 c0 -25 2 -35 4 -22 2 12 2 32 0 45 -2 12 -4 2 -4 -23z"/>
<path d="M4132 1610 c1 -30 2 -36 5 -17 l4 28 19 -23 19 -23 -1 40 c-1 32 -2
34 -5 11 l-5 -29 -19 29 -19 29 2 -45z"/>
<path d="M4277 1643 c-14 -13 -7 -25 8 -13 8 7 24 10 35 7 11 -3 18 -1 14 4
-6 10 -48 12 -57 2z"/>
<path d="M4325 1600 c19 -8 19 -8 1 -16 -11 -4 -27 -2 -37 5 -11 6 -19 7 -19
1 0 -16 49 -23 65 -10 22 18 18 30 -7 29 -22 0 -22 -1 -3 -9z"/>
</g>
</svg>
